<svg width="500" height="400" viewBox="0 0 500 400" fill="none" xmlns="http://www.w3.org/2000/svg">
<path d="M109.729 379.102C108.447 376.479 107.793 372.66 106.829 366.774L61.9868 92.8369C60.1219 81.4468 59.1893 75.746 62.2901 72.0201C65.3905 68.2968 71.0615 68.2966 82.3991 68.2966H109.729V379.102Z" fill="#037FE5"/>
<path d="M92.9204 377.931C91.4624 375.956 90.3731 372.878 88.7168 368.107L12.4276 148.342C9.25763 139.211 7.66461 134.642 9.69173 131.104C11.721 127.564 16.4142 126.723 25.7891 125.041L48.411 120.98L92.9204 377.931Z" fill="#037FE5"/>
<path d="M128.936 38.0568C128.936 28.3784 128.936 23.5393 131.54 20.2358C132.131 19.4868 132.808 18.81 133.557 18.2194C136.86 15.6152 141.699 15.6152 151.378 15.6152H468.77C478.448 15.6152 483.287 15.6152 486.59 18.2194C487.34 18.81 488.016 19.4868 488.607 20.2358C491.211 23.5393 491.211 28.3784 491.211 38.0568V361.943C491.211 371.622 491.211 376.461 488.607 379.764C488.016 380.513 487.34 381.19 486.59 381.781C483.287 384.385 478.448 384.385 468.769 384.385H151.378C141.699 384.385 136.86 384.385 133.557 381.781C132.808 381.19 132.131 380.513 131.54 379.764C128.936 376.461 128.936 371.622 128.936 361.943V38.0568Z" fill="#2600FF"/>
<rect x="180.69" y="68.2966" width="155.261" height="52.6814" rx="6.06529" fill="white"/>
<rect x="179.255" y="152.669" width="207.014" height="52.6814" rx="6.06529" fill="white"/>
<rect x="179.255" y="237.042" width="258.768" height="52.6814" rx="6.06529" fill="white"/>
</svg>
